<?xml version="1.0" encoding="UTF-8"?>
<svg version="1.1" xmlns="http://www.w3.org/2000/svg" width="512" height="512">
<path d="M0 0 C0.72704636 0.2822644 1.45409271 0.56452881 2.20317078 0.85534668 C4.604425 1.79049077 6.9993284 2.74088157 9.39453125 3.69140625 C11.11370978 4.36434773 12.83328359 5.03628012 14.55322266 5.70727539 C18.21319363 7.1373124 21.87051238 8.57385969 25.52587891 10.015625 C31.19997576 12.25316626 36.88055156 14.47389219 42.5625 16.69140625 C50.3016933 19.71311896 58.03858872 22.74062138 65.7734375 25.7734375 C76.51798055 29.98592915 87.26775001 34.18492877 98.01953125 38.37890625 C99.68546959 39.02887946 101.35140386 39.67886315 103.01733398 40.32885742 C110.89996617 43.40424382 118.78301315 46.47856576 126.66627502 49.55233765 C130.4217627 51.01673409 134.17712265 52.48145792 137.9324646 53.94622803 C140.56723336 54.97376086 143.20219208 56.00080543 145.8371582 57.02783203 C146.65372391 57.34664841 147.47028961 57.66546478 148.31159973 57.99394226 C149.88118596 58.60551918 151.45178522 59.21450384 153.02348328 59.82063293 C156.14709482 61.02953415 159.22431371 62.26175129 162.27539062 63.64672852 C168.1191112 66.2975287 171.69828152 66.51912926 177.83203125 64.69140625 C179.41353669 64.28440963 180.99557993 63.87949773 182.578125 63.4765625 C183.35913574 63.26789551 184.14014648 63.05922852 184.94482422 62.84423828 C219.51846146 53.82210847 255.54699506 56.59615569 290.20703125 63.25390625 C290.6352417 62.43188721 291.06345215 61.60986816 291.50463867 60.76293945 C293.10939876 57.69319918 294.72240578 54.62809293 296.34106445 51.56567383 C297.03774059 50.24352298 297.7311585 48.91964963 298.42114258 47.59399414 C299.41790866 45.68034721 300.42652706 43.77335929 301.4375 41.8671875 C302.03973389 40.72032471 302.64196777 39.57346191 303.26245117 38.3918457 C305.28229428 35.13245544 307.29238324 32.74052703 310.20703125 30.25390625 C313.76953125 29.69140625 313.76953125 29.69140625 317.20703125 30.25390625 C320.79134342 33.15776722 322.31445804 36.26686183 324.11328125 40.4609375 C333.00505898 59.91169106 342.43292218 68.82024798 362.32299805 76.76953125 C365.65915184 78.48660693 367.77110936 80.41296237 370.20703125 83.25390625 C370.9350017 87.13641532 370.58039634 88.66718968 368.45703125 92.00390625 C366.36872023 94.09221727 364.83468219 95.03944573 362.20703125 96.25390625 C362.64982422 96.61105713 363.09261719 96.96820801 363.54882812 97.33618164 C365.60292261 98.99457972 367.65497948 100.65548137 369.70703125 102.31640625 C370.75117187 103.15848633 370.75117187 103.15848633 371.81640625 104.01757812 C405.42652749 131.24800042 430.3646587 164.54982395 445.20703125 205.25390625 C445.48675781 206.01896484 445.76648438 206.78402344 446.0546875 207.57226562 C450.37916903 219.65783356 452.87626165 231.93095061 455.12890625 244.55078125 C456.2577318 250.72603269 457.45755596 256.27350014 460.64453125 261.75390625 C465.18394916 270.55070723 467.17658746 281.39675142 466.20703125 291.25390625 C464.89453125 293.81640625 464.89453125 293.81640625 463.20703125 295.25390625 C462.21703125 295.25390625 461.22703125 295.25390625 460.20703125 295.25390625 C460.42359375 296.12273437 460.64015625 296.9915625 460.86328125 297.88671875 C461.14171875 299.03914063 461.42015625 300.1915625 461.70703125 301.37890625 C462.1246875 303.08433594 462.1246875 303.08433594 462.55078125 304.82421875 C463.1715689 308.06857323 463.32709893 310.96205082 463.20703125 314.25390625 C464.13515625 314.35703125 465.06328125 314.46015625 466.01953125 314.56640625 C470.19506477 315.46701152 470.19506477 315.46701152 472.20703125 318.25390625 C472.95127138 320.96011638 473.53646859 323.54484914 474.03125 326.296875 C474.25794121 327.49876213 474.25794121 327.49876213 474.48921204 328.72492981 C474.80674727 330.42775077 475.11821087 332.13171343 475.42407227 333.83666992 C475.88534612 336.39055198 476.37373478 338.93811466 476.86523438 341.48632812 C482.09795447 369.47557369 482.09795447 369.47557369 474.97265625 381.76171875 C472.43301437 385.3464345 469.93080177 387.92558597 466.20703125 390.25390625 C465.57410156 390.66382813 464.94117188 391.07375 464.2890625 391.49609375 C457.38870331 395.25051057 449.85322303 395.3143831 442.20703125 394.25390625 C437.61048671 392.82202556 433.38638374 390.62197107 429.20703125 388.25390625 C428.96597656 388.92808594 428.72492188 389.60226562 428.4765625 390.296875 C426.92069397 393.92085185 424.97134594 397.22501673 422.89453125 400.56640625 C422.46736816 401.25557129 422.04020508 401.94473633 421.60009766 402.65478516 C417.63224963 408.88795986 413.10158969 414.57290995 408.32299805 420.20043945 C407.51922729 421.15116333 407.51922729 421.15116333 406.69921875 422.12109375 C406.2182373 422.67909668 405.73725586 423.23709961 405.24169922 423.81201172 C404.01269572 425.22894363 404.01269572 425.22894363 404.20703125 427.25390625 C405.03110474 427.66902466 405.03110474 427.66902466 405.87182617 428.0925293 C408.38461002 429.36547884 410.88950442 430.65326335 413.39453125 431.94140625 C414.69100586 432.59399414 414.69100586 432.59399414 416.01367188 433.25976562 C420.83719585 435.75469182 424.75240368 438.019881 428.20703125 442.25390625 C428.90819909 445.99346808 428.65533802 447.56819762 426.57128906 450.75585938 C423.81614522 453.66691181 421.51999438 454.72185583 417.81640625 456.22265625 C397.51958829 465.07113696 388.24322364 474.91255801 379.65380859 495.27807617 C378.14997832 498.37125659 376.53922072 500.73072584 374.20703125 503.25390625 C370.69943134 504.44798282 369.0589868 504.66531536 365.70141602 503.04394531 C362.9759515 501.08807707 361.84122559 499.53253187 360.234375 496.61328125 C359.72712891 495.70707031 359.21988281 494.80085938 358.69726562 493.8671875 C358.18486328 492.92230469 357.67246094 491.97742188 357.14453125 491.00390625 C356.62826172 490.07449219 356.11199219 489.14507812 355.58007812 488.1875 C354.5757018 486.37834315 353.57600738 484.56657729 352.58154297 482.75195312 C350.82732533 479.56382615 349.02316154 476.4070917 347.20703125 473.25390625 C346.27246094 473.73859375 345.33789062 474.22328125 344.375 474.72265625 C287.66819989 503.8049449 226.22071925 510.56516399 165.0625 491.6953125 C140.10446762 483.62369485 116.43513015 470.96028753 96.20703125 454.25390625 C95.65096191 453.79935059 95.09489258 453.34479492 94.52197266 452.87646484 C82.68613633 443.15500446 71.07389207 432.81529241 62.20703125 420.25390625 C61.54703125 419.92390625 60.88703125 419.59390625 60.20703125 419.25390625 C59.95824219 420.094375 59.70945312 420.93484375 59.453125 421.80078125 C58.06879782 425.63697319 56.3022673 428.98298362 54.26953125 432.50390625 C53.92212891 433.1278125 53.57472656 433.75171875 53.21679688 434.39453125 C51.43345865 437.51117508 50.24457145 439.22887945 47.20703125 441.25390625 C43.58805995 441.72594598 41.82549678 441.65975508 38.74560547 439.63867188 C35.81513046 436.88575017 34.3100642 434.2911073 32.46484375 430.72265625 C32.13338348 430.09089478 31.80192322 429.4591333 31.4604187 428.80822754 C30.40685106 426.79551737 29.36884822 424.7752881 28.33203125 422.75390625 C25.96349467 418.18657263 23.57733466 413.62895693 21.16708374 409.08349609 C20.25151374 407.33867735 19.36294066 405.57977142 18.47583008 403.8203125 C14.6232368 396.56889948 10.96976592 392.88620276 3.64453125 389.25390625 C2.74428223 388.7731665 1.8440332 388.29242676 0.91650391 387.79711914 C-0.98737224 386.78278043 -2.89838934 385.78174412 -4.81591797 384.79345703 C-8.89988151 382.68147785 -12.93867806 380.48998568 -16.97631836 378.29101562 C-18.90335217 377.24313401 -20.83502656 376.2037314 -22.77172852 375.17382812 C-24.08548462 374.4690332 -24.08548462 374.4690332 -25.42578125 373.75 C-26.58424561 373.13402954 -26.58424561 373.13402954 -27.76611328 372.50561523 C-29.81973507 371.23737639 -31.2975774 370.14948505 -32.79296875 368.25390625 C-33.40354567 362.75871394 -33.40354567 362.75871394 -32.79296875 360.25390625 C-30.09243646 357.19340533 -27.37841368 355.27121414 -23.78515625 353.37109375 C-22.31695435 352.58714233 -22.31695435 352.58714233 -20.8190918 351.78735352 C-19.25928589 350.96642212 -19.25928589 350.96642212 -17.66796875 350.12890625 C-15.50507294 348.96900244 -13.34231391 347.80884354 -11.1796875 346.6484375 C-7.23306068 344.54463508 -3.27673933 342.46099348 0.6875 340.390625 C2.29836632 339.5329074 3.90905536 338.67485671 5.51953125 337.81640625 C6.25896973 337.4404834 6.9984082 337.06456055 7.76025391 336.67724609 C12.25376844 334.26274089 14.50780599 332.29230674 16.20703125 327.25390625 C16.43136798 325.04385311 16.43136798 325.04385311 16.01953125 322.87890625 C15.90222656 322.01007813 15.78492188 321.14125 15.6640625 320.24609375 C15.51324219 319.25867188 15.36242188 318.27125 15.20703125 317.25390625 C12.88634746 300.95342333 11.84950495 284.6612313 12.33203125 268.19140625 C12.34145752 267.36479492 12.35088379 266.53818359 12.3605957 265.68652344 C12.54860165 261.46145308 12.89047132 259.67401884 15.51171875 256.1953125 C18.20703125 254.25390625 18.20703125 254.25390625 22.20703125 254.25390625 C22.16578125 253.16078125 22.12453125 252.06765625 22.08203125 250.94140625 C22.03677538 247.30154134 22.66448047 244.16021766 23.51953125 240.62890625 C24.16090213 237.85455472 24.16090213 237.85455472 24.20703125 235.25390625 C22.60584728 233.20110629 20.93926789 231.19739126 19.20703125 229.25390625 C18.67913876 223.40380663 20.95424241 218.02104344 23.10467529 212.70996094 C28.4567818 198.98816632 26.35243895 190.49479556 20.95703125 177.25390625 C20.19934201 175.24750607 19.44933312 173.2381918 18.70629883 171.22631836 C17.09534547 166.87555044 15.45612016 162.53688192 13.80126953 158.20263672 C11.07443675 150.98384017 8.56669292 143.69701625 6.109375 136.3828125 C5.89657206 135.74961342 5.68376911 135.11641434 5.46451759 134.4640274 C4.37686241 131.22450126 3.29239412 127.98391913 2.20932007 124.74285889 C0.23512662 118.83984273 -1.76578942 112.94587187 -3.76468468 107.05118561 C-4.65666398 104.42014158 -5.54748981 101.78870758 -6.43835926 99.1572876 C-9.35998032 90.52802294 -12.28674807 81.90050697 -15.21484375 73.2734375 C-15.54311944 72.30619216 -15.54311944 72.30619216 -15.87802696 71.31940651 C-18.16911477 64.56892561 -20.4608149 57.81865288 -22.75317383 51.06860352 C-23.49691375 48.87776903 -24.2406478 46.68693255 -24.984375 44.49609375 C-25.31262268 43.53004715 -25.64087036 42.56400055 -25.97906494 41.56867981 C-26.60314388 39.72999121 -27.22494452 37.89052748 -27.8442688 36.05023193 C-28.51755444 34.06569939 -29.20368377 32.08550357 -29.89865112 30.10845947 C-30.26072662 29.06349304 -30.62280212 28.01852661 -30.99584961 26.94189453 C-31.32620712 26.00209747 -31.65656464 25.06230042 -31.99693298 24.09402466 C-33.83786706 17.52588919 -34.12361147 10.82111509 -30.73046875 4.75390625 C-22.84260497 -6.02468033 -10.98456989 -4.41985667 0 0 Z " fill="#FED663" transform="translate(32.79296875,5.74609375)"/>
<path d="M0 0 C0.72704636 0.2822644 1.45409271 0.56452881 2.20317078 0.85534668 C4.604425 1.79049077 6.9993284 2.74088157 9.39453125 3.69140625 C11.11370978 4.36434773 12.83328359 5.03628012 14.55322266 5.70727539 C18.21319363 7.1373124 21.87051238 8.57385969 25.52587891 10.015625 C31.19997576 12.25316626 36.88055156 14.47389219 42.5625 16.69140625 C50.3016933 19.71311896 58.03858872 22.74062138 65.7734375 25.7734375 C76.51798055 29.98592915 87.26775001 34.18492877 98.01953125 38.37890625 C99.68546959 39.02887946 101.35140386 39.67886315 103.01733398 40.32885742 C110.89996617 43.40424382 118.78301315 46.47856576 126.66627502 49.55233765 C130.4217627 51.01673409 134.17712265 52.48145792 137.9324646 53.94622803 C140.56723336 54.97376086 143.20219208 56.00080543 145.8371582 57.02783203 C146.65372391 57.34664841 147.47028961 57.66546478 148.31159973 57.99394226 C149.88118596 58.60551918 151.45178522 59.21450384 153.02348328 59.82063293 C156.14709482 61.02953415 159.22431371 62.26175129 162.27539062 63.64672852 C168.1191112 66.2975287 171.69828152 66.51912926 177.83203125 64.69140625 C179.41353669 64.28440963 180.99557993 63.87949773 182.578125 63.4765625 C183.35913574 63.26789551 184.14014648 63.05922852 184.94482422 62.84423828 C219.51846146 53.82210847 255.54699506 56.59615569 290.20703125 63.25390625 C290.6352417 62.43188721 291.06345215 61.60986816 291.50463867 60.76293945 C293.10939876 57.69319918 294.72240578 54.62809293 296.34106445 51.56567383 C297.03774059 50.24352298 297.7311585 48.91964963 298.42114258 47.59399414 C299.41790866 45.68034721 300.42652706 43.77335929 301.4375 41.8671875 C302.03973389 40.72032471 302.64196777 39.57346191 303.26245117 38.3918457 C305.28229428 35.13245544 307.29238324 32.74052703 310.20703125 30.25390625 C313.76953125 29.69140625 313.76953125 29.69140625 317.20703125 30.25390625 C320.79134342 33.15776722 322.31445804 36.26686183 324.11328125 40.4609375 C333.00505898 59.91169106 342.43292218 68.82024798 362.32299805 76.76953125 C365.65915184 78.48660693 367.77110936 80.41296237 370.20703125 83.25390625 C370.9350017 87.13641532 370.58039634 88.66718968 368.45703125 92.00390625 C366.36872023 94.09221727 364.83468219 95.03944573 362.20703125 96.25390625 C362.64982422 96.61105713 363.09261719 96.96820801 363.54882812 97.33618164 C365.60292261 98.99457972 367.65497948 100.65548137 369.70703125 102.31640625 C370.75117187 103.15848633 370.75117187 103.15848633 371.81640625 104.01757812 C405.42652749 131.24800042 430.3646587 164.54982395 445.20703125 205.25390625 C445.48675781 206.01896484 445.76648438 206.78402344 446.0546875 207.57226562 C450.37916903 219.65783356 452.87626165 231.93095061 455.12890625 244.55078125 C456.2577318 250.72603269 457.45755596 256.27350014 460.64453125 261.75390625 C465.18394916 270.55070723 467.17658746 281.39675142 466.20703125 291.25390625 C464.89453125 293.81640625 464.89453125 293.81640625 463.20703125 295.25390625 C462.21703125 295.25390625 461.22703125 295.25390625 460.20703125 295.25390625 C460.42359375 296.12273437 460.64015625 296.9915625 460.86328125 297.88671875 C461.14171875 299.03914063 461.42015625 300.1915625 461.70703125 301.37890625 C462.1246875 303.08433594 462.1246875 303.08433594 462.55078125 304.82421875 C463.1715689 308.06857323 463.32709893 310.96205082 463.20703125 314.25390625 C464.13515625 314.35703125 465.06328125 314.46015625 466.01953125 314.56640625 C470.19506477 315.46701152 470.19506477 315.46701152 472.20703125 318.25390625 C472.95127138 320.96011638 473.53646859 323.54484914 474.03125 326.296875 C474.25794121 327.49876213 474.25794121 327.49876213 474.48921204 328.72492981 C474.80674727 330.42775077 475.11821087 332.13171343 475.42407227 333.83666992 C475.88534612 336.39055198 476.37373478 338.93811466 476.86523438 341.48632812 C482.09795447 369.47557369 482.09795447 369.47557369 474.97265625 381.76171875 C472.43301437 385.3464345 469.93080177 387.92558597 466.20703125 390.25390625 C465.57410156 390.66382813 464.94117188 391.07375 464.2890625 391.49609375 C457.38870331 395.25051057 449.85322303 395.3143831 442.20703125 394.25390625 C437.61048671 392.82202556 433.38638374 390.62197107 429.20703125 388.25390625 C428.96597656 388.92808594 428.72492188 389.60226562 428.4765625 390.296875 C426.92069397 393.92085185 424.97134594 397.22501673 422.89453125 400.56640625 C422.46736816 401.25557129 422.04020508 401.94473633 421.60009766 402.65478516 C417.63224963 408.88795986 413.10158969 414.57290995 408.32299805 420.20043945 C407.51922729 421.15116333 407.51922729 421.15116333 406.69921875 422.12109375 C406.2182373 422.67909668 405.73725586 423.23709961 405.24169922 423.81201172 C404.01269572 425.22894363 404.01269572 425.22894363 404.20703125 427.25390625 C405.03110474 427.66902466 405.03110474 427.66902466 405.87182617 428.0925293 C408.38461002 429.36547884 410.88950442 430.65326335 413.39453125 431.94140625 C414.69100586 432.59399414 414.69100586 432.59399414 416.01367188 433.25976562 C420.83719585 435.75469182 424.75240368 438.019881 428.20703125 442.25390625 C428.90819909 445.99346808 428.65533802 447.56819762 426.57128906 450.75585938 C423.81614522 453.66691181 421.51999438 454.72185583 417.81640625 456.22265625 C397.51958829 465.07113696 388.24322364 474.91255801 379.65380859 495.27807617 C378.14997832 498.37125659 376.53922072 500.73072584 374.20703125 503.25390625 C370.69943134 504.44798282 369.0589868 504.66531536 365.70141602 503.04394531 C362.9759515 501.08807707 361.84122559 499.53253187 360.234375 496.61328125 C359.72712891 495.70707031 359.21988281 494.80085938 358.69726562 493.8671875 C358.18486328 492.92230469 357.67246094 491.97742188 357.14453125 491.00390625 C356.62826172 490.07449219 356.11199219 489.14507812 355.58007812 488.1875 C354.5757018 486.37834315 353.57600738 484.56657729 352.58154297 482.75195312 C350.82732533 479.56382615 349.02316154 476.4070917 347.20703125 473.25390625 C346.27246094 473.73859375 345.33789062 474.22328125 344.375 474.72265625 C287.66819989 503.8049449 226.22071925 510.56516399 165.0625 491.6953125 C140.10446762 483.62369485 116.43513015 470.96028753 96.20703125 454.25390625 C95.65096191 453.79935059 95.09489258 453.34479492 94.52197266 452.87646484 C82.68613633 443.15500446 71.07389207 432.81529241 62.20703125 420.25390625 C61.54703125 419.92390625 60.88703125 419.59390625 60.20703125 419.25390625 C59.95824219 420.094375 59.70945312 420.93484375 59.453125 421.80078125 C58.06879782 425.63697319 56.3022673 428.98298362 54.26953125 432.50390625 C53.92212891 433.1278125 53.57472656 433.75171875 53.21679688 434.39453125 C51.43345865 437.51117508 50.24457145 439.22887945 47.20703125 441.25390625 C43.58805995 441.72594598 41.82549678 441.65975508 38.74560547 439.63867188 C35.81513046 436.88575017 34.3100642 434.2911073 32.46484375 430.72265625 C32.13338348 430.09089478 31.80192322 429.4591333 31.4604187 428.80822754 C30.40685106 426.79551737 29.36884822 424.7752881 28.33203125 422.75390625 C25.96349467 418.18657263 23.57733466 413.62895693 21.16708374 409.08349609 C20.25151374 407.33867735 19.36294066 405.57977142 18.47583008 403.8203125 C14.6232368 396.56889948 10.96976592 392.88620276 3.64453125 389.25390625 C2.74428223 388.7731665 1.8440332 388.29242676 0.91650391 387.79711914 C-0.98737224 386.78278043 -2.89838934 385.78174412 -4.81591797 384.79345703 C-8.89988151 382.68147785 -12.93867806 380.48998568 -16.97631836 378.29101562 C-18.90335217 377.24313401 -20.83502656 376.2037314 -22.77172852 375.17382812 C-24.08548462 374.4690332 -24.08548462 374.4690332 -25.42578125 373.75 C-26.58424561 373.13402954 -26.58424561 373.13402954 -27.76611328 372.50561523 C-29.81973507 371.23737639 -31.2975774 370.14948505 -32.79296875 368.25390625 C-33.40354567 362.75871394 -33.40354567 362.75871394 -32.79296875 360.25390625 C-30.09243646 357.19340533 -27.37841368 355.27121414 -23.78515625 353.37109375 C-22.31695435 352.58714233 -22.31695435 352.58714233 -20.8190918 351.78735352 C-19.25928589 350.96642212 -19.25928589 350.96642212 -17.66796875 350.12890625 C-15.50507294 348.96900244 -13.34231391 347.80884354 -11.1796875 346.6484375 C-7.23306068 344.54463508 -3.27673933 342.46099348 0.6875 340.390625 C2.29836632 339.5329074 3.90905536 338.67485671 5.51953125 337.81640625 C6.25896973 337.4404834 6.9984082 337.06456055 7.76025391 336.67724609 C12.25376844 334.26274089 14.50780599 332.29230674 16.20703125 327.25390625 C16.43136798 325.04385311 16.43136798 325.04385311 16.01953125 322.87890625 C15.90222656 322.01007813 15.78492188 321.14125 15.6640625 320.24609375 C15.51324219 319.25867188 15.36242188 318.27125 15.20703125 317.25390625 C12.88634746 300.95342333 11.84950495 284.6612313 12.33203125 268.19140625 C12.34145752 267.36479492 12.35088379 266.53818359 12.3605957 265.68652344 C12.55004495 261.42901759 12.86280448 259.69428893 15.5703125 256.23046875 C18.20703125 254.25390625 18.20703125 254.25390625 21.26953125 253.69140625 C24.9820251 254.40230933 25.94992147 255.23490664 28.20703125 258.25390625 C28.61385989 261.11201334 28.78839363 263.59875133 28.78125 266.45703125 C28.79541458 267.25365173 28.80957916 268.05027222 28.82417297 268.87103271 C28.86602846 271.4154604 28.88128501 273.95918329 28.89453125 276.50390625 C28.92374895 279.03401402 28.95853097 281.56395009 28.99702454 284.09393311 C29.01919966 285.66550951 29.03520574 287.23718996 29.04386902 288.80889893 C29.09118289 293.70041471 29.52114387 298.409206 30.20703125 303.25390625 C31.02107422 301.77277344 31.02107422 301.77277344 31.8515625 300.26171875 C32.57384463 298.9672391 33.29652154 297.67297967 34.01953125 296.37890625 C34.37595703 295.72792969 34.73238281 295.07695312 35.09960938 294.40625 C36.90784228 291.18792722 38.0865487 289.33422795 41.20703125 287.25390625 C44.64453125 287.31640625 44.64453125 287.31640625 48.20703125 288.25390625 C51.20888445 291.52111864 53.31313274 295.02811741 55.37890625 298.9375 C55.95568115 300.02329346 56.53245605 301.10908691 57.12670898 302.2277832 C57.73071533 303.37077881 58.33472168 304.51377441 58.95703125 305.69140625 C59.59756196 306.87604435 60.23957913 308.05987989 60.88305664 309.24291992 C66.18242548 319.0126905 66.18242548 319.0126905 68.09375 323.62109375 C73.25998961 335.0987344 83.33209188 339.23326631 94.14453125 344.69580078 C98.97290906 347.15233037 103.71066267 349.76857887 108.45703125 352.37890625 C109.29588867 352.82838623 110.13474609 353.27786621 110.99902344 353.7409668 C111.77407227 354.16031494 112.54912109 354.57966309 113.34765625 355.01171875 C114.02344727 355.37410645 114.69923828 355.73649414 115.39550781 356.10986328 C117.3334428 357.33373974 118.75576908 358.4770192 120.20703125 360.25390625 C120.64453125 363.69140625 120.64453125 363.69140625 120.20703125 367.25390625 C117.58328809 370.37982981 114.78386286 372.2411531 111.19921875 374.13671875 C110.22049805 374.65927246 109.24177734 375.18182617 108.23339844 375.72021484 C107.19344727 376.26758301 106.15349609 376.81495117 105.08203125 377.37890625 C102.91786622 378.54017352 100.75380475 379.70163382 98.58984375 380.86328125 C94.65865483 382.95912949 90.71616807 385.0304859 86.76171875 387.08203125 C85.16002004 387.93073258 83.5584489 388.77967471 81.95703125 389.62890625 C80.86044189 390.18022217 80.86044189 390.18022217 79.74169922 390.74267578 C74.71425922 393.43299674 72.43253698 395.95337378 70.20703125 401.25390625 C70.39353993 411.54918562 87.39398016 424.63499767 94.69799805 431.70825195 C123.24438147 458.64926163 160.68561842 476.61996153 199.20703125 483.25390625 C200.04250488 483.4034375 200.87797852 483.55296875 201.73876953 483.70703125 C246.80039785 491.5688833 291.75752563 483.00534533 332.20703125 462.25390625 C331.58957031 461.89039063 330.97210938 461.526875 330.3359375 461.15234375 C315.00478406 452.05165906 315.00478406 452.05165906 312.20703125 449.25390625 C311.36305568 444.27445039 311.36305568 444.27445039 312.20703125 441.25390625 C316.3286919 437.32732798 321.78816267 434.91000731 326.9140625 432.5625 C341.933609 425.62224885 349.29986887 418.72780294 356.09765625 403.66503906 C357.62988855 400.33486165 359.41168706 397.2262642 361.26953125 394.06640625 C362.02943359 392.71482422 362.02943359 392.71482422 362.8046875 391.3359375 C364.20703125 389.25390625 364.20703125 389.25390625 367.20703125 387.25390625 C370.51953125 387.06640625 370.51953125 387.06640625 374.20703125 388.25390625 C376.82022193 390.88096001 378.44000956 394.01845681 380.20703125 397.25390625 C380.58214844 397.93308105 380.95726562 398.61225586 381.34375 399.31201172 C383.41404007 403.07461697 385.45428935 406.85312138 387.44921875 410.65625 C387.78808105 411.30070068 388.12694336 411.94515137 388.47607422 412.60913086 C389.20703125 414.25390625 389.20703125 414.25390625 389.20703125 416.25390625 C394.14538548 412.7887196 397.37551107 408.4431348 400.89453125 403.62890625 C401.50522461 402.7972998 402.11591797 401.96569336 402.74511719 401.10888672 C409.64631793 391.52348401 415.9111518 381.28856005 420.20703125 370.25390625 C418.74680542 370.2398877 418.74680542 370.2398877 417.25708008 370.22558594 C413.63178405 370.18559533 410.00732862 370.119813 406.38256836 370.04638672 C404.81627228 370.01822931 403.2498355 369.99698872 401.68334961 369.98291016 C399.42619059 369.96140658 397.17071386 369.91472436 394.9140625 369.86328125 C393.87002007 369.86143829 393.87002007 369.86143829 392.80488586 369.85955811 C388.03783333 369.71720052 385.54746542 368.64909513 382.20703125 365.25390625 C381.3478567 362.30897243 381.80846915 360.39258276 382.20703125 357.25390625 C383.2824707 355.52612305 383.2824707 355.52612305 385.20703125 354.25390625 C387.72430844 353.99237339 389.98807091 353.90411405 392.5 353.9609375 C393.20602859 353.96518234 393.91205719 353.96942719 394.63948059 353.97380066 C396.89155428 353.99057591 399.14272867 354.02822382 401.39453125 354.06640625 C402.9225131 354.08145468 404.45050901 354.09514281 405.97851562 354.10742188 C409.72169997 354.14047536 413.46421321 354.19224793 417.20703125 354.25390625 C416.46243414 349.52387606 415.71180224 344.79482252 414.95703125 340.06640625 C414.8450943 339.36428009 414.73315735 338.66215393 414.61782837 337.93875122 C413.05205471 328.1470993 411.379257 318.39064846 409.37597656 308.67700195 C409.2209668 307.90702881 409.06595703 307.13705566 408.90625 306.34375 C408.77049561 305.69269287 408.63474121 305.04163574 408.49487305 304.37084961 C408.12539987 301.65354515 408.1634233 298.99243648 408.20703125 296.25390625 C390.34111775 302.36240037 372.66081983 308.96763424 354.96728516 315.55401611 C351.76967488 316.7436286 348.57119211 317.93088528 345.37270164 319.11812878 C342.25803117 320.27452669 339.14383002 321.4321841 336.02977371 322.59023476 C334.55888737 323.13710777 333.08787993 323.68365522 331.61674118 324.22984886 C329.56092483 324.99338408 327.50561284 325.75825062 325.45068359 326.52416992 C324.81534887 326.76088504 324.18001415 326.99760015 323.52542686 327.24148846 C318.99513661 328.9379374 314.50677958 330.72255751 310.04190063 332.5839386 C308.20703125 333.25390625 308.20703125 333.25390625 306.20703125 333.25390625 C306.37074219 333.7540625 306.53445313 334.25421875 306.703125 334.76953125 C307.39492235 338.18025305 307.3120779 341.54126382 307.26953125 345.00390625 C307.26501953 345.70128906 307.26050781 346.39867187 307.25585938 347.1171875 C307.24413145 348.82946428 307.22619778 350.54169658 307.20703125 352.25390625 C308.25322632 352.24605103 308.25322632 352.24605103 309.32055664 352.23803711 C321.92852409 352.15654898 334.54069502 352.13666518 347.14453125 352.50390625 C348.10174072 352.51800537 349.0589502 352.53210449 350.04516602 352.54663086 C356.53896006 352.7830368 356.53896006 352.7830368 359.80078125 355.08203125 C361.90325866 358.32919081 361.81362862 360.47952262 361.20703125 364.25390625 C359.10672803 366.62834543 357.40455463 368.0537557 354.2175293 368.58642578 C351.72332946 368.6895075 349.26455121 368.64955852 346.76953125 368.56640625 C345.83608887 368.5509375 344.90264648 368.53546875 343.94091797 368.51953125 C340.69515135 368.45653724 337.45174959 368.3575815 334.20703125 368.25390625 C332.89879395 368.21571777 331.59055664 368.1775293 330.24267578 368.13818359 C321.56252513 367.88412697 312.88459955 367.5851515 304.20703125 367.25390625 C304.078125 368.30191406 303.94921875 369.34992188 303.81640625 370.4296875 C302.82973277 376.62169605 301.01903597 382.14806292 296.89453125 386.94140625 C293.2365935 388.72784096 291.0750841 388.34863819 287.20703125 387.25390625 C284.68865712 383.47634506 284.60445322 380.62259697 285.20703125 376.25390625 C286.05692506 373.45967989 287.04944458 370.77263155 288.13671875 368.0625 C293.56839822 353.80929731 292.72273708 337.40081746 287.20703125 323.25390625 C285.51724182 319.7801887 283.61568166 316.45037971 281.59765625 313.15625 C280.029426 309.88323013 279.81873512 307.83934192 280.20703125 304.25390625 C281.76953125 301.87890625 281.76953125 301.87890625 284.20703125 300.25390625 C287.58203125 299.56640625 287.58203125 299.56640625 291.20703125 300.25390625 C296.33405563 304.17528832 299.13845269 310.27936466 301.20703125 316.25390625 C301.20703125 316.91390625 301.20703125 317.57390625 301.20703125 318.25390625 C319.1752641 312.15432794 336.94240296 305.56021829 354.6965332 298.87054443 C357.56281886 297.79122257 360.43004383 296.7144092 363.29731178 295.63770008 C366.78055525 294.32962005 370.26338354 293.02043656 373.74609375 291.7109375 C374.38527363 291.4706312 375.02445351 291.2303249 375.68300247 290.98273659 C377.52928062 290.28829788 379.37523935 289.59301014 381.22119141 288.89770508 C382.3791925 288.46205231 383.5371936 288.02639954 384.73028564 287.57754517 C387.12238825 286.6668429 389.50881543 285.74113741 391.89031982 284.80307007 C393.05621643 284.34429474 394.22211304 283.88551941 395.42333984 283.4128418 C396.46461029 282.99802048 397.50588074 282.58319916 398.57870483 282.1558075 C401.20703125 281.25390625 401.20703125 281.25390625 404.20703125 281.25390625 C404.160625 280.64804687 404.11421875 280.0421875 404.06640625 279.41796875 C403.65309641 269.82327598 406.24817416 263.19227505 412.45703125 255.87890625 C417.81847344 250.25248339 423.83759039 246.45729416 431.78515625 246.15625 C433.10773438 246.17365234 433.10773438 246.17365234 434.45703125 246.19140625 C435.3490625 246.20042969 436.24109375 246.20945313 437.16015625 246.21875 C438.17335938 246.23615234 438.17335938 246.23615234 439.20703125 246.25390625 C431.5185057 211.67475192 419.63218898 180.11314657 397.20703125 152.25390625 C396.38976562 151.23296875 395.5725 150.21203125 394.73046875 149.16015625 C384.12576303 136.15693256 372.30264219 124.38916382 358.79101562 114.42333984 C357.27730656 113.30578953 355.78074523 112.16512374 354.28515625 111.0234375 C349.92839214 107.60850654 349.92839214 107.60850654 344.8046875 105.828125 C341.15998949 106.42552663 339.12899004 108.01500579 336.20703125 110.25390625 C334.22497463 113.00173809 334.22497463 113.00173809 332.69921875 116.15625 C332.10496094 117.29384766 331.51070313 118.43144531 330.8984375 119.60351562 C330.29209644 120.79903715 329.68663453 121.99500495 329.08203125 123.19140625 C327.87865529 125.53789371 326.66497951 127.87860919 325.44921875 130.21875 C324.92183105 131.25636475 324.39444336 132.29397949 323.85107422 133.36303711 C319.82303314 140.44590531 319.82303314 140.44590531 316.20703125 142.25390625 C313.39453125 142.69140625 313.39453125 142.69140625 310.20703125 142.25390625 C305.63979283 137.84148947 303.3316321 132.61179088 300.60351562 126.93701172 C294.7543166 114.97289292 289.85794428 107.03118728 277.20166016 102.08398438 C273.76474279 100.65368829 270.60422333 98.75291416 267.39453125 96.87890625 C266.27433594 96.25242187 265.15414063 95.6259375 264 94.98046875 C261.64745611 93.52616889 259.87918124 92.43276836 258.20703125 90.25390625 C257.21118063 85.19166559 257.21118063 85.19166559 258.20703125 82.25390625 C260.95049775 79.72842837 263.95265648 78.03622642 267.20703125 76.25390625 C256.24802631 74.31080449 245.61845766 73.89149055 234.51953125 73.94140625 C233.25787643 73.94414047 233.25787643 73.94414047 231.97073364 73.94692993 C220.60348127 73.98843056 209.52797539 74.20795363 198.41015625 76.80175781 C195.87263142 77.32253529 193.34120229 77.62467087 190.76953125 77.93359375 C181.27066371 79.11477878 181.27066371 79.11477878 173.42724609 84.09912109 C170.35505638 88.4751422 168.25052569 93.23733862 166.17724609 98.14599609 C164.0801415 102.70221177 160.74615519 106.71478231 157.20703125 110.25390625 C153.89453125 110.62890625 153.89453125 110.62890625 150.20703125 110.25390625 C147.62825276 107.93961786 146.37882136 106.43218428 145.875 102.9765625 C146.32884694 99.25501755 147.91938186 97.00974711 149.95703125 93.87890625 C150.69217803 92.73226528 151.42655997 91.58513357 152.16015625 90.4375 C152.835625 89.38691406 153.51109375 88.33632812 154.20703125 87.25390625 C155.57745048 84.93850013 156.89570444 82.60336678 158.20703125 80.25390625 C151.00495654 76.74563566 143.62310399 73.8010286 136.14453125 70.94140625 C135.20391846 70.57982422 134.26330566 70.21824219 133.29418945 69.84570312 C132.40820068 69.50990234 131.52221191 69.17410156 130.609375 68.828125 C129.81007568 68.52479248 129.01077637 68.22145996 128.18725586 67.90893555 C126.2381874 67.14922299 126.2381874 67.14922299 124.20703125 67.25390625 C113.7031249 89.30975068 103.23625473 111.38048773 92.93798828 133.53320312 C90.06119992 139.71953247 87.17336918 145.9007171 84.28726196 152.08270264 C82.78361385 155.3036734 81.28048945 158.52488851 79.77734375 161.74609375 C78.92057292 163.58203125 78.06380208 165.41796875 77.20703125 167.25390625 C80.81114552 166.05253483 83.53158132 164.07421781 86.58203125 161.87890625 C87.51305664 161.20952026 87.51305664 161.20952026 88.46289062 160.52661133 C101.43960647 151.07238218 115.20275274 140.14975088 125.08203125 127.44140625 C126.79990791 125.38430332 127.68497804 124.41201379 130.2578125 123.6328125 C133.62890613 123.42943756 135.90703582 124.07098221 138.76953125 125.81640625 C140.86452871 129.36879325 140.19926324 131.29732973 139.20703125 135.25390625 C137.59992322 137.69897831 135.6516551 139.69515391 133.58203125 141.75390625 C133.03297119 142.32141602 132.48391113 142.88892578 131.91821289 143.47363281 C130.83592559 144.58837755 129.74733795 145.69704786 128.65185547 146.79882812 C127.49862659 147.96024146 126.36664697 149.14274211 125.2421875 150.33203125 C121.1720558 154.59123998 116.66090036 158.2616608 112.0703125 161.9453125 C110.25618435 163.40799973 108.45934936 164.89262365 106.6875 166.40625 C92.19792624 178.71459761 61.88583384 204.25390625 42.20703125 204.25390625 C40.77909199 208.85143796 39.40689724 213.4404599 38.2578125 218.1171875 C38.0117627 219.11190063 38.0117627 219.11190063 37.76074219 220.12670898 C37.28644518 222.05996434 36.82654532 223.99673435 36.3671875 225.93359375 C34.92461999 230.06215395 33.11732501 232.29875937 29.20703125 234.25390625 C26.33203125 234.62890625 26.33203125 234.62890625 23.20703125 234.25390625 C20.76953125 232.31640625 20.76953125 232.31640625 19.20703125 229.25390625 C18.97961817 223.29656039 20.9046169 218.14360721 23.10467529 212.70996094 C28.4567818 198.98816632 26.35243895 190.49479556 20.95703125 177.25390625 C20.19934201 175.24750607 19.44933312 173.2381918 18.70629883 171.22631836 C17.09534547 166.87555044 15.45612016 162.53688192 13.80126953 158.20263672 C11.07443675 150.98384017 8.56669292 143.69701625 6.109375 136.3828125 C5.89657206 135.74961342 5.68376911 135.11641434 5.46451759 134.4640274 C4.37686241 131.22450126 3.29239412 127.98391913 2.20932007 124.74285889 C0.23512662 118.83984273 -1.76578942 112.94587187 -3.76468468 107.05118561 C-4.65666398 104.42014158 -5.54748981 101.78870758 -6.43835926 99.1572876 C-9.35998032 90.52802294 -12.28674807 81.90050697 -15.21484375 73.2734375 C-15.54311944 72.30619216 -15.54311944 72.30619216 -15.87802696 71.31940651 C-18.16911477 64.56892561 -20.4608149 57.81865288 -22.75317383 51.06860352 C-23.49691375 48.87776903 -24.2406478 46.68693255 -24.984375 44.49609375 C-25.31262268 43.53004715 -25.64087036 42.56400055 -25.97906494 41.56867981 C-26.60314388 39.72999121 -27.22494452 37.89052748 -27.8442688 36.05023193 C-28.51755444 34.06569939 -29.20368377 32.08550357 -29.89865112 30.10845947 C-30.26072662 29.06349304 -30.62280212 28.01852661 -30.99584961 26.94189453 C-31.32620712 26.00209747 -31.65656464 25.06230042 -31.99693298 24.09402466 C-33.83786706 17.52588919 -34.12361147 10.82111509 -30.73046875 4.75390625 C-22.84260497 -6.02468033 -10.98456989 -4.41985667 0 0 Z " fill="#020201" transform="translate(32.79296875,5.74609375)"/>
<path d="M0 0 C0.57105469 0.72574219 1.14210937 1.45148438 1.73046875 2.19921875 C3.85166179 4.81693891 6.04593209 7.32048306 8.3125 9.8125 C11.11416947 12.89799873 13.86670858 16.00943397 16.5625 19.1875 C20.07720936 23.19634083 23.88950534 26.6125876 28 30 C28.51030762 30.42796875 29.02061523 30.8559375 29.54638672 31.296875 C50.10345683 48.49371159 73.45467652 62.60920032 99 71 C99.63921387 71.2170459 100.27842773 71.4340918 100.93701172 71.65771484 C138.50358111 84.39768186 181.14872347 86.59358145 219.671875 76.55078125 C222 76 222 76 225 76 C225.33 75.34 225.66 74.68 226 74 C229.63 75.98 233.26 77.96 237 80 C233.72848099 83.27151901 230.44303018 84.91292492 226.3125 86.8125 C225.55428955 87.1628833 224.7960791 87.5132666 224.01489258 87.87426758 C184.13489804 106.0437074 140.94574759 110.07422965 98 102 C96.75935791 101.76772705 96.75935791 101.76772705 95.49365234 101.53076172 C67.57405997 96.09141071 40.88791683 83.73137532 18 67 C17.40300293 66.56977539 16.80600586 66.13955078 16.19091797 65.69628906 C7.53589623 59.42354063 -0.28505018 52.37860323 -8 45 C-9.01707031 44.04480469 -9.01707031 44.04480469 -10.0546875 43.0703125 C-15.18297113 38.13109002 -19.59115102 32.57941548 -24 27 C-24.58394531 26.2678125 -25.16789062 25.535625 -25.76953125 24.78125 C-27 23 -27 23 -26.9375 21.1875 C-26.628125 20.465625 -26.31875 19.74375 -26 19 C-25.32904297 17.39898437 -25.32904297 17.39898437 -24.64453125 15.765625 C-21.56216976 10.41410007 -16.08015743 8.25801743 -10.75 5.5625 C-9.71875 5.02173828 -8.6875 4.48097656 -7.625 3.92382812 C-5.09170262 2.59853829 -2.55061944 1.29154556 0 0 Z " fill="#FDA84C" transform="translate(129,387)"/>
<path d="M0 0 C6.36324814 1.08608626 12.19015092 3.61982526 18.1875 5.9375 C19.38826172 6.39318359 20.58902344 6.84886719 21.82617188 7.31835938 C22.97021484 7.75857422 24.11425781 8.19878906 25.29296875 8.65234375 C26.3399292 9.05445068 27.38688965 9.45655762 28.46557617 9.87084961 C31 11 31 11 33 13 C25.95948651 28.23862661 18.86250283 43.44924509 11.6875 58.625 C11.33170868 59.37765137 10.97591736 60.13030273 10.60934448 60.90576172 C9.1589075 63.97394197 7.7082986 67.04204087 6.25749207 70.11004639 C3.05720751 76.87785612 -0.14160891 83.64635079 -3.33227539 90.41870117 C-4.67945731 93.27796961 -6.0319588 96.13462871 -7.38842773 98.98950195 C-10.414294 105.37474624 -13.36076226 111.76837559 -16.09375 118.28515625 C-16.56893066 119.39600586 -17.04411133 120.50685547 -17.53369141 121.65136719 C-18.39249601 123.67535736 -19.22551899 125.7106026 -20.02490234 127.75878906 C-22.69073495 133.98770703 -25.48715395 136.53511167 -31.69970703 139.2644043 C-34 140 -34 140 -37 140 C-38.60646533 135.45402051 -40.1904125 130.90101847 -41.75463867 126.34033203 C-42.28898981 124.79234472 -42.82926704 123.24638911 -43.37573242 121.70263672 C-44.16359215 119.47360528 -44.92932078 117.23795511 -45.69140625 115 C-46.06006554 113.97918335 -46.06006554 113.97918335 -46.43617249 112.93774414 C-48.5221028 106.68781996 -48.13466579 101.92424515 -45.71582031 95.69042969 C-45.17538086 94.61180664 -44.63494141 93.53318359 -44.078125 92.421875 C-43.6342897 91.52191551 -43.6342897 91.52191551 -43.18148804 90.60377502 C-42.54577063 89.31760572 -41.9048283 88.03400776 -41.25909424 86.75283813 C-39.87217342 84.00009434 -38.51186824 81.23448144 -37.150177 78.4691925 C-36.44914239 77.04565014 -35.74688495 75.62270933 -35.04342651 74.20036316 C-31.79439442 67.62123189 -28.6918468 60.97841188 -25.625 54.3125 C-20.41201053 43.0139783 -15.12806117 31.75056495 -9.8125 20.5 C-9.43611389 19.70284576 -9.05972778 18.90569153 -8.67193604 18.0843811 C-7.60091909 15.81637804 -6.52915759 13.54872881 -5.45703125 11.28125 C-5.13679489 10.60337936 -4.81655853 9.92550873 -4.48661804 9.22709656 C-3.02293542 6.13481385 -1.54815976 3.05099812 0 0 Z " fill="#FAF5EB" transform="translate(110,54)"/>
<path d="M0 0 C1.29024223 7.13349759 2.57098262 14.26865464 3.84521484 21.4050293 C4.27956447 23.83120072 4.7160664 26.25698787 5.15478516 28.68237305 C5.78597807 32.17397196 6.40935012 35.6668917 7.03125 39.16015625 C7.22811401 40.23959 7.42497803 41.31902374 7.62780762 42.4311676 C8.55876451 47.70385831 9.2387395 52.64494045 9 58 C7.56164795 58.029729 7.56164795 58.029729 6.09423828 58.06005859 C2.54188447 58.13604145 -1.01005576 58.2247693 -4.56201172 58.31738281 C-6.10034021 58.35570301 -7.63875925 58.39055056 -9.17724609 58.421875 C-11.38672276 58.46746059 -13.59557448 58.5254634 -15.8046875 58.5859375 C-16.83914505 58.60326431 -16.83914505 58.60326431 -17.89450073 58.62094116 C-21.8920154 58.64951022 -21.8920154 58.64951022 -25 61 C-25.39764263 62.98821313 -25.73775349 64.98944339 -26 67 C-26.33 66.34 -26.66 65.68 -27 65 C-33.6 65 -40.2 65 -47 65 C-47.66 63.02 -48.32 61.04 -49 59 C-51.42194485 57.78902758 -53.10977787 57.80490787 -55.81689453 57.70288086 C-56.81778107 57.66291489 -57.8186676 57.62294891 -58.84988403 57.58177185 C-59.93325043 57.54318558 -61.01661682 57.5045993 -62.1328125 57.46484375 C-63.23978485 57.42186661 -64.3467572 57.37888947 -65.48727417 57.33460999 C-69.03303378 57.19794129 -72.5789958 57.06765278 -76.125 56.9375 C-78.52475558 56.84612233 -80.92449545 56.75433082 -83.32421875 56.66210938 C-89.21597397 56.43659871 -95.10791849 56.21681093 -101 56 C-101.33 49.73 -101.66 43.46 -102 37 C-91.86272152 32.90823543 -81.68854645 28.96289055 -71.44140625 25.15625 C-69.99895804 24.61885489 -68.55657155 24.08129409 -67.11424255 23.5435791 C-63.35807745 22.14371062 -59.60113417 20.74594322 -55.84399414 19.34869385 C-52.05895929 17.94069734 -48.27460821 16.53086573 -44.49023438 15.12109375 C-40.20813315 13.52591874 -35.92599332 11.93085053 -31.64320374 10.33752441 C-30.99253905 10.095299 -30.34187437 9.85307358 -29.67149258 9.603508 C-28.38811002 9.12612138 -27.10443192 8.64952845 -25.82044315 8.17377472 C-22.40621028 6.9065421 -19.00174856 5.61784651 -15.60592651 4.30200195 C-14.88081595 4.02339577 -14.15570539 3.74478958 -13.40862179 3.45774078 C-12.01755045 2.92261313 -10.62846863 2.38227459 -9.24177647 1.83589935 C-5.88947852 0.55184531 -3.65338419 0 0 0 Z " fill="#93D3A2" transform="translate(441,302)"/>
<path d="M0 0 C3.44147698 3.08714517 5.31487451 6.17329843 7.35546875 10.3046875 C7.98409722 11.54083737 8.61368558 12.77649947 9.24414062 14.01171875 C10.21736901 15.93764019 11.18317546 17.86616762 12.13208008 19.80419922 C16.14888313 27.96714409 19.63024505 33.77435431 28 38 C29.03938721 38.57830566 30.07877441 39.15661133 31.1496582 39.75244141 C34.60025121 41.66721849 38.0759656 43.52657723 41.5625 45.375 C42.77431454 46.02171211 43.98590467 46.66884492 45.19726562 47.31640625 C48.12934034 48.88173697 51.06359165 50.44281859 54 52 C51.45495685 54.90237638 48.5887063 56.45278726 45.1953125 58.25 C44.05449219 58.8584375 42.91367188 59.466875 41.73828125 60.09375 C40.53398491 60.72941443 39.32955661 61.36482891 38.125 62 C35.77234527 63.24795758 33.42132781 64.49895239 31.0703125 65.75 C30.02633301 66.30171875 28.98235352 66.8534375 27.90673828 67.421875 C26.94751465 67.94265625 25.98829102 68.4634375 25 69 C24.11940918 69.44448486 23.23881836 69.88896973 22.33154297 70.34692383 C19.37928394 72.44009094 18.28215114 74.49278286 16.625 77.69921875 C16.03203125 78.82650391 15.4390625 79.95378906 14.828125 81.11523438 C14.21812981 82.30567199 13.60875854 83.49642952 13 84.6875 C11.79413118 87.00519018 10.58584965 89.32162686 9.375 91.63671875 C8.80394531 92.73032715 8.23289063 93.82393555 7.64453125 94.95068359 C5.59277326 98.7550864 3.35765387 102.37867937 1 106 C-1.35761452 103.01862003 -3.1851653 99.96331871 -4.9609375 96.60546875 C-5.51523438 95.56712891 -6.06953125 94.52878906 -6.640625 93.45898438 C-7.79031151 91.29037524 -8.93876374 89.12111128 -10.0859375 86.95117188 C-10.6428125 85.90896484 -11.1996875 84.86675781 -11.7734375 83.79296875 C-12.27278809 82.8496167 -12.77213867 81.90626465 -13.28662109 80.93432617 C-17.0467113 74.49481004 -20.09443941 70.2807511 -26.98046875 66.921875 C-27.63453201 66.58375793 -28.28859528 66.24564087 -28.96247864 65.89727783 C-31.02948514 64.83156901 -33.10722439 63.78953399 -35.1875 62.75 C-37.27650534 61.69286076 -39.3626751 60.63078399 -41.44465637 59.55987549 C-42.73452265 58.89772226 -44.02874674 58.24397245 -45.3276825 57.59979248 C-48.50929678 55.97988211 -49.97152965 55.04270552 -52 52 C-50.86304687 51.3709375 -49.72609375 50.741875 -48.5546875 50.09375 C-46.9947079 49.22931782 -45.43481851 48.36472282 -43.875 47.5 C-43.06417969 47.05092285 -42.25335938 46.6018457 -41.41796875 46.13916016 C-37.51464186 43.97226224 -33.62077384 41.79288399 -29.7578125 39.5546875 C-29.1198877 39.18537109 -28.48196289 38.81605469 -27.82470703 38.43554688 C-26.08930055 37.42690281 -24.35706096 36.4128158 -22.625 35.3984375 C-20 34 -20 34 -18 34 C-17.740979 33.31067383 -17.48195801 32.62134766 -17.21508789 31.91113281 C-15.84542344 28.62966226 -14.23910759 25.55576432 -12.55859375 22.421875 C-12.23085464 21.80983215 -11.90311554 21.19778931 -11.56544495 20.56719971 C-10.87668487 19.28240061 -10.18663514 17.99829211 -9.49536133 16.71484375 C-8.43426479 14.74399101 -7.37798105 12.77061448 -6.32226562 10.796875 C-1.13899547 1.13899547 -1.13899547 1.13899547 0 0 Z " fill="#93D4A2" transform="translate(76,317)"/>
<path d="M0 0 C4.60964849 2.01148298 7.02283156 4.65603058 9.1328125 9.2421875 C10.55233545 13.75652625 11.23548741 18.41312528 11.8737793 23.09643555 C12.47234868 27.23439249 12.47234868 27.23439249 14.27734375 30.94921875 C16.46906728 32.28612041 18.47214681 32.65839822 21 33 C24.44419134 46.6332574 24.44419134 46.6332574 24 53 C23.0409375 53.433125 23.0409375 53.433125 22.0625 53.875 C19.84793921 54.82823451 19.84793921 54.82823451 19 57 C19.11031108 66.0845952 20.77533701 74.93675774 22.5625 83.8125 C26.55953104 103.66552194 26.55953104 103.66552194 22.328125 111.234375 C19.2741796 115.29432594 15.55401497 116.74570664 10.5625 117.5625 C5.93490884 116.83182771 2.51728599 115.09674093 -1 112 C-3.72330128 108.13130385 -4.60921795 104.8356203 -5.32421875 100.18359375 C-5.48514511 99.17410675 -5.48514511 99.17410675 -5.64932251 98.14422607 C-5.88206879 96.67940476 -6.11016665 95.21383895 -6.33413696 93.74765015 C-6.94721815 89.73956374 -7.59608259 85.73724817 -8.2421875 81.734375 C-8.37891373 80.88260178 -8.51563995 80.03082855 -8.6565094 79.15324402 C-10.54281809 67.49781929 -12.70878826 55.89207116 -14.84799194 44.28097534 C-15.19192174 42.4138964 -15.53544087 40.54674176 -15.87850952 38.67950439 C-16.19098073 36.9800623 -16.5047831 35.28086416 -16.82022095 33.58197021 C-20.8990665 11.43000627 -20.8990665 11.43000627 -17.73046875 5.70703125 C-12.52630391 -0.4341365 -7.86602307 -0.76768825 0 0 Z " fill="#93D3A2" transform="translate(472,268)"/>
<path d="M0 0 C7.94300145 2.18067409 15.502923 5.08106048 23.125 8.1875 C24.84589844 8.88262695 24.84589844 8.88262695 26.6015625 9.59179688 C29.40267125 10.72391166 32.20207482 11.86004534 35 13 C34.07692181 14.90232401 33.14723324 16.80144115 32.21484375 18.69921875 C31.43935181 20.28609497 31.43935181 20.28609497 30.64819336 21.9050293 C29.1357434 24.74510161 27.49076426 27.24362317 25.5625 29.8125 C23.30993573 33.04469508 22.99560096 33.72725939 23.0625 37.875 C23.67782069 39.92606897 24.32283654 41.96850963 25 44 C23.67978551 46.14572107 22.36032176 48.0313419 20.8125 50 C20.41224609 50.53367188 20.01199219 51.06734375 19.59960938 51.6171875 C15.18379458 57.37134487 15.18379458 57.37134487 12 59 C10.7521875 58.90589844 9.504375 58.81179687 8.21875 58.71484375 C5.47821897 58.61270822 4.33465893 58.7604842 2.078125 60.37548828 C0.1109044 62.36285636 -1.70521256 64.41820133 -3.5 66.5625 C-4.73552613 67.98400533 -5.9751101 69.401994 -7.21875 70.81640625 C-7.83427734 71.51749512 -8.44980469 72.21858398 -9.08398438 72.94091797 C-12.15343501 76.2395605 -15.55112213 79.10916218 -19 82 C-19.9384375 82.81984375 -20.876875 83.6396875 -21.84375 84.484375 C-29.82412541 91.29116579 -38.28385757 97.18186431 -47 103 C-47.33 102.34 -47.66 101.68 -48 101 C-46.96317849 98.44918454 -45.85891091 96.01702409 -44.65234375 93.546875 C-44.28954315 92.78800995 -43.92674255 92.0291449 -43.552948 91.24728394 C-42.35483135 88.74474794 -41.14602276 86.24752495 -39.9375 83.75 C-39.10348047 82.01135092 -38.27039885 80.27225163 -37.43823242 78.53271484 C-36.17275713 75.88755284 -34.90678307 73.24264608 -33.63795471 70.59909058 C-29.97490203 62.96607587 -26.38055434 55.30278145 -22.8125 47.625 C-21.70064126 45.23822515 -20.58866142 42.8515067 -19.4765625 40.46484375 C-18.92000977 39.26972168 -18.36345703 38.07459961 -17.79003906 36.84326172 C-14.76577295 30.34961133 -11.73944427 23.8569379 -8.7059021 17.36761475 C-8.0309479 15.92272612 -7.35680464 14.47745838 -6.6835022 13.03179932 C-5.75324246 11.03458053 -4.82030908 9.03863235 -3.88671875 7.04296875 C-3.08560669 5.32630005 -3.08560669 5.32630005 -2.26831055 3.57495117 C-1 1 -1 1 0 0 Z " fill="#76BFA1" transform="translate(157,72)"/>
<path d="M0 0 C6.83353684 0.95238704 12.90042653 3.41337745 19.3125 5.875 C20.51712891 6.32230469 21.72175781 6.76960938 22.96289062 7.23046875 C24.10564453 7.66746094 25.24839844 8.10445312 26.42578125 8.5546875 C27.47161377 8.95155762 28.51744629 9.34842773 29.5949707 9.75732422 C32 11 32 11 33 14 C32.07184163 16.41602263 31.07904822 18.6569492 29.94140625 20.97265625 C29.60599823 21.67536652 29.27059021 22.37807678 28.92501831 23.1020813 C27.81312771 25.42663205 26.68774406 27.74438784 25.5625 30.0625 C24.78613371 31.68023858 24.01083741 33.29849107 23.23657227 34.91723633 C21.63059714 38.27316543 20.02029387 41.62696674 18.40722656 44.97949219 C15.04283275 51.9829311 11.74116549 59.0157128 8.44088745 66.04953003 C6.85745193 69.42343868 5.27031914 72.79560643 3.68359375 76.16796875 C3.08445236 77.44188499 2.48533137 78.71581082 1.88623047 79.98974609 C-1.4078833 86.99377395 -4.70409689 93.99681404 -8 101 C-10.11927286 98.88072714 -10.57496211 97.76748847 -11.49633789 94.98095703 C-11.91170555 93.7392424 -11.91170555 93.7392424 -12.33546448 92.47244263 C-12.62823776 91.57661469 -12.92101105 90.68078674 -13.22265625 89.7578125 C-13.52819931 88.8378952 -13.83374237 87.91797791 -14.14854431 86.97018433 C-14.7942793 85.02254813 -15.43715267 83.0739612 -16.07739258 81.12451172 C-17.056836 78.14224607 -18.04419162 75.16269839 -19.03320312 72.18359375 C-19.65931775 70.29182004 -20.28498367 68.39989774 -20.91015625 66.5078125 C-21.20495377 65.61603302 -21.49975128 64.72425354 -21.80348206 63.80545044 C-22.07724167 62.97133636 -22.35100128 62.13722229 -22.63305664 61.27783203 C-22.87351212 60.5466214 -23.11396759 59.81541077 -23.36170959 59.06204224 C-24.88234693 54.14951592 -25.06033309 52.37493038 -22.67578125 47.6171875 C-22.14686279 46.54380127 -21.61794434 45.47041504 -21.07299805 44.36450195 C-20.49203369 43.21296631 -19.91106934 42.06143066 -19.3125 40.875 C-18.11519467 38.45017187 -16.91994314 36.0244101 -15.7265625 33.59765625 C-15.41955917 32.97640366 -15.11255585 32.35515106 -14.79624939 31.71507263 C-11.47069048 24.97020913 -8.32193355 18.14805513 -5.1875 11.3125 C-4.66647705 10.1786084 -4.1454541 9.0447168 -3.60864258 7.87646484 C-2.40375485 5.2518882 -1.20075573 2.62646896 0 0 Z " fill="#93D4A2" transform="translate(63,36)"/>
<path d="M0 0 C-0.66498022 8.7322402 -1.45895562 17.610677 -3.51635742 26.14086914 C-4.16703424 29.98744974 -4.20173922 33.80109282 -4.23828125 37.69140625 C-4.24784851 38.54168396 -4.25741577 39.39196167 -4.26727295 40.26800537 C-4.29194302 43.03287415 -4.30442097 45.79753471 -4.3125 48.5625 C-4.31611542 49.50096771 -4.31973083 50.43943542 -4.32345581 51.40634155 C-4.35124021 69.35180493 -2.54905978 86.3927968 1 104 C-1.49455478 101.04349063 -3.4745233 98.13382466 -5.3125 94.75 C-7.30989117 91.49499217 -7.74179384 91.09059865 -11.5625 89.75 C-14.98191796 89.66706579 -14.98191796 89.66706579 -16.984375 91.625 C-19.2899177 94.34160845 -20.954977 97.13822333 -22.6875 100.25 C-23.76623379 102.18109517 -24.86326925 104.1024652 -26 106 C-26.33 106 -26.66 106 -27 106 C-27.75571689 99.84400013 -28.18798197 93.78822115 -28.31640625 87.58984375 C-28.33718735 86.73693253 -28.35796844 85.8840213 -28.37937927 85.00526428 C-28.44407199 82.31608089 -28.503381 79.6268111 -28.5625 76.9375 C-28.60576184 75.09960091 -28.64937839 73.26171014 -28.69335938 71.42382812 C-28.79966934 66.94930429 -28.90115562 62.47469473 -29 58 C-30.65 57.34 -32.3 56.68 -34 56 C-34.24794402 49.4294834 -33.32388229 43.43028541 -32 37 C-31.38511719 36.92265625 -30.77023438 36.8453125 -30.13671875 36.765625 C-27.36762457 36.1826578 -25.38770611 35.53617651 -23 34 C-21.73580755 31.2328232 -21.27033676 28.59201579 -20.69921875 25.60546875 C-17.46511219 8.92904221 -17.46511219 8.92904221 -12.46923828 4.70605469 C-8.96427834 2.54501192 -4.2271533 0 0 0 Z " fill="#FCA84C" transform="translate(89,204)"/>
<path d="M0 0 C2.331838 2.12138776 3.62388825 3.99974442 4.8828125 6.87890625 C10.46335672 18.72661612 16.34748439 24.50963342 28.15478516 30.10498047 C30.52945053 31.25680942 32.76494049 32.59924561 35 34 C32.52752141 36.12396432 30.06931419 37.45441922 27.09375 38.70703125 C12.65664225 45.13366962 7.20977357 54.8375541 1 69 C-2.5222421 64.8880247 -5.13336622 60.52158847 -7.75 55.8125 C-8.16121094 55.08869141 -8.57242187 54.36488281 -8.99609375 53.61914062 C-12 48.25502232 -12 48.25502232 -12 46 C-12.64324219 45.76539063 -13.28648437 45.53078125 -13.94921875 45.2890625 C-18.03914852 43.56092316 -21.90216134 41.47275083 -25.8125 39.375 C-26.60076172 38.95476562 -27.38902344 38.53453125 -28.20117188 38.1015625 C-30.13535326 37.0699991 -32.06823983 36.03608828 -34 35 C-31.8417567 32.61846105 -29.9012692 31.33493267 -26.97265625 30.0390625 C-12.6640636 23.14616049 -6.51515691 14.27688183 0 0 Z " fill="#84BCEF" transform="translate(402,417)"/>
<path d="M0 0 C1.04468964 1.69038702 2.00815224 3.43105545 2.9375 5.1875 C11.31580719 19.8538563 23.30822027 32.23099698 39 39 C33.50010044 49.43032724 27.82115569 59.74560306 22 70 C19.64238548 67.01862003 17.8148347 63.96331871 16.0390625 60.60546875 C15.48476562 59.56712891 14.93046875 58.52878906 14.359375 57.45898438 C13.20968849 55.29037524 12.06123626 53.12111128 10.9140625 50.95117188 C10.3571875 49.90896484 9.8003125 48.86675781 9.2265625 47.79296875 C8.47753662 46.37794067 8.47753662 46.37794067 7.71337891 44.93432617 C3.9532887 38.49481004 0.90556059 34.2807511 -5.98046875 30.921875 C-6.63453201 30.58375793 -7.28859528 30.24564087 -7.96247864 29.89727783 C-10.02948514 28.83156901 -12.10722439 27.78953399 -14.1875 26.75 C-16.27650534 25.69286076 -18.3626751 24.63078399 -20.44465637 23.55987549 C-21.73452265 22.89772226 -23.02874674 22.24397245 -24.3276825 21.59979248 C-27.50929678 19.97988211 -28.97152965 19.04270552 -31 16 C-25.76219428 13.08385837 -20.52168129 10.17264702 -15.27880859 7.265625 C-13.32564914 6.18086192 -11.37516786 5.09152006 -9.42578125 4 C-7.97751953 3.195625 -7.97751953 3.195625 -6.5 2.375 C-5.24703125 1.67503906 -5.24703125 1.67503906 -3.96875 0.9609375 C-2 0 -2 0 0 0 Z " fill="#76BFA2" transform="translate(55,353)"/>
<path d="M0 0 C9.37516749 0.11348741 18.75014539 0.23817431 28.125 0.375 C29.17051907 0.39024782 29.17051907 0.39024782 30.23715973 0.40580368 C56.18336604 0.78890826 82.08422414 1.6579121 108 3 C108.33 2.34 108.66 1.68 109 1 C109.495 7.93 109.495 7.93 110 15 C106.56980469 15.07347656 106.56980469 15.07347656 103.0703125 15.1484375 C100.85947025 15.20242291 98.64873783 15.25973985 96.43798828 15.31738281 C94.89965979 15.35570301 93.36124075 15.39055056 91.82275391 15.421875 C89.61327724 15.46746059 87.40442552 15.5254634 85.1953125 15.5859375 C84.16085495 15.60326431 84.16085495 15.60326431 83.10549927 15.62094116 C79.1079846 15.64951022 79.1079846 15.64951022 76 18 C75.60235737 19.98821313 75.26224651 21.98944339 75 24 C74.505 23.01 74.505 23.01 74 22 C67.4 22 60.8 22 54 22 C53.34 20.02 52.68 18.04 52 16 C49.57805515 14.78902758 47.89022213 14.80490787 45.18310547 14.70288086 C44.18221893 14.66291489 43.1813324 14.62294891 42.15011597 14.58177185 C41.06674957 14.54318558 39.98338318 14.5045993 38.8671875 14.46484375 C37.76021515 14.42186661 36.6532428 14.37888947 35.51272583 14.33460999 C31.96696622 14.19794129 28.4210042 14.06765278 24.875 13.9375 C22.47524442 13.84612233 20.07550455 13.75433082 17.67578125 13.66210938 C11.78402603 13.43659871 5.89208151 13.21681093 0 13 C0 8.71 0 4.42 0 0 Z " fill="#77BFA1" transform="translate(340,345)"/>
<path d="M0 0 C2.2212569 2.07197566 3.77354751 4.07911996 5.26171875 6.72265625 C5.65810547 7.42583984 6.05449219 8.12902344 6.46289062 8.85351562 C6.86701172 9.58248047 7.27113281 10.31144531 7.6875 11.0625 C8.10322266 11.79533203 8.51894531 12.52816406 8.94726562 13.28320312 C12 18.74203356 12 18.74203356 12 21 C12.65355469 21.23460938 13.30710937 21.46921875 13.98046875 21.7109375 C17.93124152 23.39755459 21.58704258 25.49426475 25.3125 27.625 C26.05306641 28.04523438 26.79363281 28.46546875 27.55664062 28.8984375 C29.37269011 29.92948495 31.18656533 30.96436046 33 32 C30.60395068 33.99464931 28.19165882 35.44283893 25.390625 36.76953125 C14.51373484 42.04547821 10.04370294 47.0386852 5 58 C3.70811946 60.35994336 2.35915514 62.67761752 1 65 C-1.92108658 61.68174814 -3.73942175 58.44904366 -5.53735352 54.42773438 C-11.06855243 42.63308043 -20.4728349 38.14608553 -32 33 C-29.94596275 30.78783856 -28.0173335 29.31231835 -25.34765625 27.9140625 C-24.30641602 27.35332031 -24.30641602 27.35332031 -23.24414062 26.78125 C-21.7959888 26.0137425 -20.34547448 25.25067525 -18.89257812 24.4921875 C-11.46180178 20.47034006 -8.2236116 14.92931007 -4.25 7.6875 C-3.83878906 6.94693359 -3.42757813 6.20636719 -3.00390625 5.44335938 C-1.99845215 3.63120373 -0.998647 1.8159158 0 0 Z " fill="#DE7A46" transform="translate(346,60)"/>
<path d="M0 0 C3.4156706 2.576639 6.07610754 4.65127068 8.46484375 8.234375 C8.92151438 11.8116283 8.90261806 13.56895805 6.90234375 16.609375 C4.39221212 18.28279609 2.61618436 19.04907866 -0.4296875 18.88671875 C-4.37940326 17.66296637 -7.39518087 14.84941436 -10.625 12.34375 C-16.41784537 8.14490906 -23.3085454 4.68603818 -30.53515625 4.234375 C-31.30988281 4.18410156 -32.08460938 4.13382813 -32.8828125 4.08203125 C-46.49586152 3.59235323 -56.94853806 7.45111207 -67.5625 15.8359375 C-70.4822066 18.12314748 -72.00396852 19.234375 -75.78515625 19.234375 C-80.12995179 17.65444935 -80.12995179 17.65444935 -81.53515625 15.234375 C-82.14155818 11.92672809 -82.39755987 10.35986462 -81.53515625 7.234375 C-74.57904784 -2.37466364 -59.07230024 -9.10363198 -47.74609375 -11.30859375 C-30.71208768 -13.73314206 -14.20184099 -9.89095859 0 0 Z " fill="#050401" transform="translate(278.53515625,228.765625)"/>
<path d="M0 0 C3.4156706 2.576639 6.07610754 4.65127068 8.46484375 8.234375 C8.92151438 11.8116283 8.90261806 13.56895805 6.90234375 16.609375 C4.39221212 18.28279609 2.61618436 19.04907866 -0.4296875 18.88671875 C-4.37940326 17.66296637 -7.39518087 14.84941436 -10.625 12.34375 C-16.41784537 8.14490906 -23.3085454 4.68603818 -30.53515625 4.234375 C-31.30988281 4.18410156 -32.08460938 4.13382813 -32.8828125 4.08203125 C-46.49586152 3.59235323 -56.94853806 7.45111207 -67.5625 15.8359375 C-70.4822066 18.12314748 -72.00396852 19.234375 -75.78515625 19.234375 C-80.12995179 17.65444935 -80.12995179 17.65444935 -81.53515625 15.234375 C-82.14155818 11.92672809 -82.39755987 10.35986462 -81.53515625 7.234375 C-74.57904784 -2.37466364 -59.07230024 -9.10363198 -47.74609375 -11.30859375 C-30.71208768 -13.73314206 -14.20184099 -9.89095859 0 0 Z " fill="#040401" transform="translate(426.53515625,228.765625)"/>
<path d="M0 0 C7.86379677 2.18340181 15.41675284 4.99285026 23 8 C23 26.41657814 -14.5611323 58.59778787 -26.5625 70.75 C-27.1706958 71.37124756 -27.7788916 71.99249512 -28.40551758 72.63256836 C-29.8981683 74.12817943 -31.44475131 75.5695944 -33 77 C-33.66 77 -34.32 77 -35 77 C-34.42764802 71.63624434 -32.57321988 67.4955536 -30.23828125 62.71875 C-29.85543472 61.91965714 -29.4725882 61.12056427 -29.07814026 60.29725647 C-27.82973394 57.69483614 -26.57112868 55.09748951 -25.3125 52.5 C-24.01549031 49.80283802 -22.72112368 47.10441843 -21.42694092 44.40589905 C-20.55479278 42.58772801 -19.68178329 40.76996991 -18.80792236 38.95262146 C-14.44796861 29.87797793 -10.19701101 20.75375099 -5.9750061 11.61425781 C-5.14905604 9.8267078 -4.32069307 8.04027326 -3.4921875 6.25390625 C-3.03183105 5.25689697 -2.57147461 4.2598877 -2.09716797 3.23266602 C-1 1 -1 1 0 0 Z " fill="#93D3A2" transform="translate(157,72)"/>
<path d="M0 0 C2.07008333 3.53903987 2.67775441 6.97393871 3.37280273 10.99316406 C3.49507233 11.68981171 3.61734192 12.38645935 3.74331665 13.10421753 C4.14599845 15.4070328 4.53977115 17.71127958 4.93359375 20.015625 C5.21443174 21.6307772 5.49585931 23.24582699 5.77784729 24.86077881 C6.52031897 29.12145695 7.25540555 33.3833759 7.98876953 37.64562988 C8.87137453 42.76814829 9.76186166 47.88930057 10.65194035 53.01052475 C11.34684405 57.00906368 12.04041642 61.00781381 12.72935486 65.00738525 C13.35340887 68.62587951 13.98476368 72.24301841 14.62290573 75.85905457 C14.88008043 77.31915896 15.13538589 78.77959353 15.38905716 80.24031067 C15.77096895 82.43066427 16.16181881 84.61924951 16.55493164 86.80761719 C16.7803212 88.07933777 17.00571075 89.35105835 17.2379303 90.66131592 C18.73689774 97.22840386 21.43711029 101.20795436 27 104.9375 C29.94831546 106.60151137 32.58660651 107.67999436 36 108 C33.80210057 112.51790439 31.72061191 114.27516103 27 116 C21.47557958 116.81843265 18.34408662 115.44677457 13.796875 112.58203125 C9.56903517 108.85969401 8.50814514 104.59922255 7.67578125 99.18359375 C7.51485489 98.17410675 7.51485489 98.17410675 7.35067749 97.14422607 C7.11793121 95.67940476 6.88983335 94.21383895 6.66586304 92.74765015 C6.05278185 88.73956374 5.40391741 84.73724817 4.7578125 80.734375 C4.62108627 79.88260178 4.48436005 79.03082855 4.3434906 78.15324402 C2.45718191 66.49781929 0.29121174 54.89207116 -1.84799194 43.28097534 C-2.19192174 41.4138964 -2.53544087 39.54674176 -2.87850952 37.67950439 C-3.19098073 35.9800623 -3.5047831 34.28086416 -3.82022095 32.58197021 C-7.91722507 10.33138818 -7.91722507 10.33138818 -4.66015625 4.671875 C-3.19066762 2.97072581 -1.71542268 1.4499406 0 0 Z " fill="#76BFA1" transform="translate(459,269)"/>
<path d="M0 0 C4.7830729 0.55077809 8.8939857 1.52549687 13.37109375 3.28515625 C14.52158203 3.73310547 15.67207031 4.18105469 16.85742188 4.64257812 C18.62956055 5.34543945 18.62956055 5.34543945 20.4375 6.0625 C21.64599609 6.53494141 22.85449219 7.00738281 24.09960938 7.49414062 C27.0690912 8.65611177 30.03569469 9.82489989 33 11 C32.42143369 16.25381335 30.6722489 20.33154663 28.40234375 25.0234375 C28.04862198 25.76961334 27.69490021 26.51578918 27.33045959 27.28457642 C26.20647839 29.65146157 25.07218039 32.01322834 23.9375 34.375 C23.17053582 35.98534952 22.40425237 37.59602344 21.63867188 39.20703125 C19.7669733 43.14181952 17.88601044 47.07205286 16 51 C13.86050911 48.86050911 13.35811563 47.62538882 12.38012695 44.81323242 C12.07673904 43.94860886 11.77335114 43.08398529 11.46076965 42.19316101 C11.13984848 41.25672256 10.81892731 40.32028412 10.48828125 39.35546875 C10.1557988 38.39353104 9.82331635 37.43159332 9.48075867 36.44050598 C8.77919908 34.403066 8.08086519 32.3645129 7.38549805 30.32495117 C6.31886285 27.20610499 5.23321924 24.09431218 4.14648438 20.98242188 C3.467571 19.00300816 2.78979871 17.02320262 2.11328125 15.04296875 C1.78628738 14.112603 1.45929352 13.18223724 1.12239075 12.22367859 C0.82845932 11.34959854 0.53452789 10.47551849 0.23168945 9.57495117 C-0.03097214 8.81043137 -0.29363373 8.04591156 -0.56425476 7.25822449 C-1.0823326 4.57331608 -0.68430795 2.62591617 0 0 Z " fill="#F3E2BE" transform="translate(16,18)"/>
<path d="M0 0 C2.74129154 2.65548984 4.84644007 5.51205919 7.0625 8.625 C10.7945457 13.7432341 14.89629342 17.94564078 19.73828125 22.0625 C21.92273854 23.93381401 23.96607894 25.96607894 26 28 C22.7 33.94 19.4 39.88 16 46 C11.49264706 40.36580882 11.49264706 40.36580882 9.640625 37.08203125 C9.05087891 36.03692383 9.05087891 36.03692383 8.44921875 34.97070312 C8.05347656 34.25849609 7.65773438 33.54628906 7.25 32.8125 C6.83878906 32.08869141 6.42757813 31.36488281 6.00390625 30.61914062 C3 25.25502232 3 25.25502232 3 23 C2.35675781 22.76539063 1.71351563 22.53078125 1.05078125 22.2890625 C-3.03914852 20.56092316 -6.90216134 18.47275083 -10.8125 16.375 C-11.60076172 15.95476562 -12.38902344 15.53453125 -13.20117188 15.1015625 C-15.13535326 14.0699991 -17.06823983 13.03608828 -19 12 C-16.91006261 9.75169117 -14.89046062 8.21953426 -12.20703125 6.73828125 C-11.49482422 6.34189453 -10.78261719 5.94550781 -10.04882812 5.53710938 C-9.31083984 5.13298828 -8.57285156 4.72886719 -7.8125 4.3125 C-7.06291016 3.89677734 -6.31332031 3.48105469 -5.54101562 3.05273438 C-3.69651534 2.03062275 -1.8485869 1.0147019 0 0 Z " fill="#60A1F6" transform="translate(387,440)"/>
<path d="M0 0 C2.31438969 2.85605537 4.52467045 5.73480298 6.625 8.75 C11.55839722 15.36552248 17.81964886 20.94265363 25 25 C23.45614871 29.14032846 21.48971062 32.93553053 19.375 36.8125 C19.05015625 37.40998047 18.7253125 38.00746094 18.390625 38.62304688 C17.59620849 40.08337135 16.79844624 41.54187491 16 43 C13.07891342 39.68174814 11.26057825 36.44904366 9.46264648 32.42773438 C3.93144757 20.63308043 -5.4728349 16.14608553 -17 11 C-14.02856642 7.83965409 -10.57517395 5.89951975 -6.8125 3.8125 C-6.15830078 3.44447266 -5.50410156 3.07644531 -4.83007812 2.69726562 C-3.22253039 1.7937534 -1.61159349 0.8962759 0 0 Z " fill="#CD633D" transform="translate(331,82)"/>
<path d="M0 0 C1.61160014 3.02412806 2.73542715 6.03212159 3.76953125 9.296875 C4.09888672 10.33126709 4.42824219 11.36565918 4.76757812 12.43139648 C5.11240234 13.52653564 5.45722656 14.6216748 5.8125 15.75 C6.16634766 16.86640869 6.52019531 17.98281738 6.88476562 19.13305664 C7.59479219 21.37549254 8.30330953 23.61840692 9.01025391 25.86181641 C9.8807065 28.62175661 10.75718426 31.37966318 11.63671875 34.13671875 C12.09145193 35.57021544 12.54590487 37.00380107 13 38.4375 C13.5878125 40.29181641 13.5878125 40.29181641 14.1875 42.18359375 C15 45 15 45 15 47 C15.66 47 16.32 47 17 47 C15.35433477 52.68502535 12.70967216 57.76681636 10 63 C7.88072714 60.88072714 7.42503789 59.76748847 6.50366211 56.98095703 C6.22675034 56.15314728 5.94983856 55.32533752 5.66453552 54.47244263 C5.37176224 53.57661469 5.07898895 52.68078674 4.77734375 51.7578125 C4.47180069 50.8378952 4.16625763 49.91797791 3.85145569 48.97018433 C3.2057207 47.02254813 2.56284733 45.0739612 1.92260742 43.12451172 C0.943164 40.14224607 -0.04419162 37.16269839 -1.03320312 34.18359375 C-1.65931775 32.29182004 -2.28498367 30.39989774 -2.91015625 28.5078125 C-3.20495377 27.61603302 -3.49975128 26.72425354 -3.80348206 25.80545044 C-4.07724167 24.97133636 -4.35100128 24.13722229 -4.63305664 23.27783203 C-4.87351212 22.5466214 -5.11396759 21.81541077 -5.36170959 21.06204224 C-5.57234543 20.3815683 -5.78298126 19.70109436 -6 19 C-6.22276108 18.32750214 -6.44552216 17.65500427 -6.67503357 16.96212769 C-7.26200395 13.418036 -5.11841741 10.35011416 -3.5625 7.25 C-3.05493164 6.20392578 -3.05493164 6.20392578 -2.53710938 5.13671875 C-1.70193542 3.41931879 -0.85234576 1.70894262 0 0 Z " fill="#76BFA1" transform="translate(45,74)"/>
<path d="M0 0 C2.91347201 2.91347201 3.69340339 6.53676332 4.9375 10.375 C5.20256348 11.18050293 5.46762695 11.98600586 5.74072266 12.81591797 C7.7941584 19.14787072 9.547374 25.50141 11 32 C16.71658336 32.45732667 19.48649253 31.52273754 24 28 C24.66 28.33 25.32 28.66 26 29 C20.22167584 44.21115134 20.22167584 44.21115134 13.75 47.4375 C10.88365793 48.57246464 9.1036871 49 6 49 C4.39353467 44.45402051 2.8095875 39.90101847 1.24536133 35.34033203 C0.71101019 33.79234472 0.17073296 32.24638911 -0.37573242 30.70263672 C-1.16359215 28.47360528 -1.92932078 26.23795511 -2.69140625 24 C-2.93717911 23.31945557 -3.18295197 22.63891113 -3.43617249 21.93774414 C-5.37215615 16.13709439 -5.25883286 11.27599876 -3.02734375 5.46875 C-2.66769531 4.8190625 -2.30804688 4.169375 -1.9375 3.5 C-1.57527344 2.8296875 -1.21304688 2.159375 -0.83984375 1.46875 C-0.56269531 0.9840625 -0.28554687 0.499375 0 0 Z " fill="#F3E2BE" transform="translate(67,145)"/>
<path d="M0 0 C6.85618326 1.92556636 13.43252132 4.2472483 20 7 C19.4284057 12.51368655 17.43558568 16.88572211 15.0625 21.8125 C14.70220703 22.58787109 14.34191406 23.36324219 13.97070312 24.16210938 C11.2587941 29.87060295 11.2587941 29.87060295 9 31 C4.60546875 17.81640625 4.60546875 17.81640625 3.81005859 15.41455078 C3.26292331 13.78369847 2.70300251 12.15708808 2.13134766 10.53466797 C1.85726074 9.74850098 1.58317383 8.96233398 1.30078125 8.15234375 C1.05110596 7.44972412 0.80143066 6.74710449 0.54418945 6.02319336 C0 4 0 4 0 0 Z " fill="#F8F2E8" transform="translate(29,22)"/>
</svg>
